<?xml version="1.0" encoding="utf-8"?>
<!-- Generator: Adobe Illustrator 16.0.0, SVG Export Plug-In . SVG Version: 6.00 Build 0)  -->
<!DOCTYPE svg PUBLIC "-//W3C//DTD SVG 1.1//EN" "http://www.w3.org/Graphics/SVG/1.1/DTD/svg11.dtd">
<svg version="1.1" xmlns="http://www.w3.org/2000/svg" xmlns:xlink="http://www.w3.org/1999/xlink" x="0px" y="0px" width="58px"
	 height="29px" viewBox="0 0 58 29" enable-background="new 0 0 58 29" xml:space="preserve">
<g id="Layer_2" display="none">
	
		<rect x="-2.938" y="-1.812" display="inline" fill-rule="evenodd" clip-rule="evenodd" fill="#3A1313" width="72.75" height="40.75"/>
</g>
<g id="Layer_1">
	<g>
		<g>
			<path fill-rule="evenodd" clip-rule="evenodd" fill="#FFFFFF" d="M32.435,13.297c0.756,0.436,1.682,0.242,2.07-0.43l5.957-10.32
				c0.389-0.673,0.092-1.571-0.662-2.007c-0.753-0.436-1.681-0.244-2.069,0.429l-5.957,10.32
				C31.385,11.962,31.682,12.86,32.435,13.297z M56.647,11.283h-3.919c0,0,0.531,2.317-1.609,3.359
				c-2.392,1.164-3.849-0.91-3.849-0.91l-1.399-2.45h-8.748c0,0-0.316,0.485-0.645,1.112c-0.709,1.349-1.563,2.597-3.204,2.597
				c-0.393,0-0.943-0.082-1.462-0.344c-0.516-0.258-1.002-0.695-1.268-1.126c-0.608-0.982-0.281-2.239-0.281-2.239h-3.848
				c0,0-1.399,0.111-1.399,1.61c0,1.382,1.399,1.609,1.399,1.609h0.7l3.148,11.758c0,0,0.139,1.022,0.771,1.469
				c1.188,0.838,2.099,0.77,2.099,0.77h16.797c0,0,1.29-0.137,1.958-0.699c0.662-0.558,0.84-1.539,0.84-1.539l3.149-11.758h0.699
				c0,0,1.389-0.175,1.4-1.539C57.991,11.412,56.647,11.283,56.647,11.283z M34.813,25.14c0,0.502-0.408,0.909-0.91,0.909
				s-0.91-0.407-0.91-0.909v-6.929c0-0.502,0.408-0.91,0.91-0.91s0.91,0.408,0.91,0.91V25.14z M39.853,25.14
				c0,0.502-0.408,0.909-0.909,0.909c-0.504,0-0.91-0.407-0.91-0.909v-6.929c0-0.502,0.406-0.91,0.91-0.91
				c0.501,0,0.909,0.408,0.909,0.91V25.14z M44.961,25.14c0,0.502-0.408,0.909-0.91,0.909s-0.91-0.407-0.91-0.909v-6.929
				c0-0.502,0.408-0.91,0.91-0.91s0.91,0.408,0.91,0.91V25.14z M49.999,25.14c0,0.502-0.406,0.909-0.91,0.909
				c-0.502,0-0.908-0.407-0.908-0.909v-6.929c0-0.502,0.406-0.91,0.908-0.91c0.504,0,0.91,0.408,0.91,0.91V25.14z M10.005,7.884
				H6.006v5.999H0.007v3.999h5.999v5.998h3.999v-5.998h5.998v-3.999h-5.998V7.884z M48.507,12.867
				c0.389,0.673,1.316,0.865,2.069,0.43c0.754-0.436,1.051-1.333,0.664-2.007L45.281,0.97c-0.389-0.672-1.314-0.865-2.07-0.429
				c-0.753,0.436-1.05,1.334-0.661,2.007L48.507,12.867z"/>
		</g>
	</g>
</g>
</svg>
