<?xml version="1.0" encoding="utf-8"?>
<!-- Generator: Adobe Illustrator 16.0.0, SVG Export Plug-In . SVG Version: 6.00 Build 0)  -->
<!DOCTYPE svg PUBLIC "-//W3C//DTD SVG 1.1//EN" "http://www.w3.org/Graphics/SVG/1.1/DTD/svg11.dtd">
<svg version="1.1" xmlns="http://www.w3.org/2000/svg" xmlns:xlink="http://www.w3.org/1999/xlink" x="0px" y="0px" width="24px"
	 height="21px" viewBox="0 0 24 21" enable-background="new 0 0 24 21" xml:space="preserve">
<g id="Layer_1" display="none">
	<g display="inline">
		<path fill="none" d="M5.515,9.7c0.538,0.312,1.2,0.174,1.478-0.307l4.258-7.373c0.277-0.481,0.065-1.123-0.474-1.434
			c-0.539-0.312-1.201-0.174-1.479,0.306L5.041,8.267C4.764,8.748,4.976,9.389,5.515,9.7z M22.813,8.262h-2.8
			c0,0,0.379,1.655-1.15,2.4c-1.708,0.831-2.75-0.65-2.75-0.65l-1-1.75h-6.25c0,0-0.226,0.347-0.461,0.794
			c-0.506,0.964-1.116,1.856-2.289,1.856c-0.279,0-0.673-0.059-1.044-0.245C4.7,10.481,4.354,10.169,4.163,9.862
			c-0.434-0.703-0.2-1.6-0.2-1.6h-2.75c0,0-1,0.079-1,1.15c0,0.987,1,1.149,1,1.149h0.5l2.25,8.4c0,0,0.099,0.731,0.551,1.05
			c0.85,0.599,1.5,0.55,1.5,0.55h12c0,0,0.922-0.098,1.399-0.5c0.473-0.397,0.601-1.1,0.601-1.1l2.25-8.4h0.5c0,0,0.99-0.125,1-1.1
			C23.773,8.354,22.813,8.262,22.813,8.262z M7.213,18.162c0,0.359-0.291,0.649-0.649,0.649c-0.359,0-0.65-0.29-0.65-0.649v-4.95
			c0-0.359,0.291-0.65,0.65-0.65c0.358,0,0.649,0.291,0.649,0.65V18.162z M10.813,18.162c0,0.359-0.291,0.649-0.65,0.649
			c-0.358,0-0.649-0.29-0.649-0.649v-4.95c0-0.359,0.291-0.65,0.649-0.65c0.359,0,0.65,0.291,0.65,0.65V18.162z M14.463,18.162
			c0,0.359-0.291,0.649-0.649,0.649c-0.359,0-0.65-0.29-0.65-0.649v-4.95c0-0.359,0.291-0.65,0.65-0.65
			c0.358,0,0.649,0.291,0.649,0.65V18.162z M18.063,18.162c0,0.359-0.291,0.649-0.65,0.649c-0.358,0-0.649-0.29-0.649-0.649v-4.95
			c0-0.359,0.291-0.65,0.649-0.65c0.359,0,0.65,0.291,0.65,0.65V18.162z M16.998,9.395c0.277,0.48,0.938,0.617,1.478,0.306
			s0.751-0.953,0.474-1.434l-4.257-7.374c-0.277-0.48-0.939-0.618-1.479-0.307c-0.539,0.311-0.751,0.953-0.474,1.434L16.998,9.395z"
			/>
	</g>
	
		<rect x="-18.978" y="-12.433" display="inline" fill-rule="evenodd" clip-rule="evenodd" fill="#231F20" width="69.925" height="50.075"/>
</g>
<g id="Layer_2">
	<g>
		<g>
			<path fill-rule="evenodd" clip-rule="evenodd" fill="#FFFFFF" d="M22.813,8.262h-2.8c0,0,0.379,1.655-1.15,2.4
				c-1.708,0.831-2.75-0.65-2.75-0.65l-1-1.75h-6.25c0,0-0.226,0.347-0.461,0.794c-0.506,0.964-1.116,1.856-2.289,1.856
				c-0.279,0-0.673-0.059-1.044-0.245C4.7,10.481,4.354,10.169,4.163,9.862c-0.434-0.703-0.2-1.6-0.2-1.6h-2.75c0,0-1,0.079-1,1.15
				c0,0.987,1,1.149,1,1.149h0.5l2.25,8.4c0,0,0.099,0.731,0.551,1.05c0.85,0.599,1.5,0.55,1.5,0.55h12c0,0,0.922-0.098,1.399-0.5
				c0.473-0.397,0.601-1.1,0.601-1.1l2.25-8.4h0.5c0,0,0.99-0.125,1-1.1C23.773,8.354,22.813,8.262,22.813,8.262z M7.213,18.162
				c0,0.359-0.291,0.649-0.649,0.649c-0.359,0-0.65-0.29-0.65-0.649v-4.95c0-0.359,0.291-0.65,0.65-0.65
				c0.358,0,0.649,0.291,0.649,0.65V18.162z M10.813,18.162c0,0.359-0.291,0.649-0.65,0.649c-0.358,0-0.649-0.29-0.649-0.649v-4.95
				c0-0.359,0.291-0.65,0.649-0.65c0.359,0,0.65,0.291,0.65,0.65V18.162z M14.463,18.162c0,0.359-0.291,0.649-0.649,0.649
				c-0.359,0-0.65-0.29-0.65-0.649v-4.95c0-0.359,0.291-0.65,0.65-0.65c0.358,0,0.649,0.291,0.649,0.65V18.162z M18.063,18.162
				c0,0.359-0.291,0.649-0.65,0.649c-0.358,0-0.649-0.29-0.649-0.649v-4.95c0-0.359,0.291-0.65,0.649-0.65
				c0.359,0,0.65,0.291,0.65,0.65V18.162z M5.515,9.7c0.538,0.312,1.2,0.174,1.478-0.307l4.258-7.373
				c0.277-0.481,0.065-1.123-0.474-1.434c-0.539-0.312-1.201-0.174-1.479,0.306L5.041,8.267C4.764,8.748,4.976,9.389,5.515,9.7z
				 M16.998,9.395c0.277,0.48,0.938,0.617,1.478,0.306s0.751-0.953,0.474-1.434l-4.257-7.374c-0.277-0.48-0.939-0.618-1.479-0.307
				c-0.539,0.311-0.751,0.953-0.474,1.434L16.998,9.395z"/>
		</g>
	</g>
</g>
</svg>
