<?xml version="1.0" encoding="utf-8"?>
<!-- Generator: Adobe Illustrator 16.0.0, SVG Export Plug-In . SVG Version: 6.00 Build 0)  -->
<!DOCTYPE svg PUBLIC "-//W3C//DTD SVG 1.1//EN" "http://www.w3.org/Graphics/SVG/1.1/DTD/svg11.dtd">
<svg version="1.1" xmlns="http://www.w3.org/2000/svg" xmlns:xlink="http://www.w3.org/1999/xlink" x="0px" y="0px" width="250px"
	 height="105px" viewBox="0 0 250 105" enable-background="new 0 0 250 105" xml:space="preserve">
<g id="Layer_2_1_" display="none">
	<rect display="inline" width="250" height="104.9"/>
</g>
<g id="Layer_1">
	<g id="Layer_1_1_">
		<g>
			<path fill="#FFFFFF" d="M25.405,32.265c-3.045-5.323-3.57-10.237-2.765-14.546C24.289,8.359,32.257,1.82,34.566,0.1
				c-2.614,1.135-13.149,6.429-15.45,18.874c-0.258,1.458-0.402,3.014-0.408,4.672c-0.024,7.205,3.986,13.119,8.244,21.221
				c2.021,3.846,3.136,9.281,2.099,14.855c-0.107,0.604-0.239,1.209-0.396,1.812c-0.957,3.656-3.513,6.797-5.049,8.432
				c2.297-2.064,7.262-7.203,8.636-14.08C33.492,49.161,30.466,41.116,25.405,32.265z"/>
			<path fill="#FFFFFF" d="M16.402,67.199c-3.045-5.324-3.571-10.239-2.765-14.548c1.648-9.357,9.617-15.896,11.926-17.617
				c-2.615,1.135-13.15,6.429-15.451,18.873c-0.257,1.459-0.402,3.015-0.407,4.672C9.68,65.783,13.691,71.698,17.947,79.8
				c2.021,3.847,3.137,9.281,2.099,14.856c-0.107,0.604-0.238,1.208-0.396,1.812c-0.957,3.658-3.511,6.798-5.048,8.433
				c2.297-2.065,7.261-7.203,8.635-14.08C24.488,84.095,21.462,76.05,16.402,67.199z"/>
			<g>
				<path fill="#FFFFFF" d="M59.431,60.497c0,0.934-0.206,1.77-0.616,2.506c-0.411,0.738-0.999,1.368-1.764,1.891
					c-0.654,0.411-1.386,0.728-2.198,0.952c-0.812,0.224-1.685,0.336-2.618,0.336c-1.232,0-2.315-0.149-3.248-0.448
					c-0.934-0.299-1.755-0.737-2.464-1.316c-1.494-1.287-2.24-3.312-2.24-6.075h1.596c0,4.162,2.119,6.243,6.356,6.243
					c1.53,0,2.818-0.326,3.864-0.979c0.541-0.373,0.966-0.826,1.274-1.358c0.308-0.531,0.462-1.124,0.462-1.777
					c0-1.718-0.999-2.912-2.996-3.584h0.028c-0.168-0.037-0.346-0.084-0.532-0.141c-0.187-0.056-0.364-0.103-0.532-0.14
					c-0.859-0.224-1.741-0.452-2.646-0.687c-0.906-0.232-1.806-0.452-2.702-0.657c-2.408-0.858-3.612-2.427-3.612-4.704
					c0-1.886,0.765-3.322,2.296-4.312c1.176-0.765,2.744-1.147,4.704-1.147c4.648,0,7.065,2.286,7.252,6.859h-1.596
					c-0.112-3.509-1.998-5.264-5.656-5.264c-1.568,0-2.819,0.29-3.752,0.868c-1.102,0.672-1.652,1.671-1.652,2.996
					c0,1.605,0.999,2.716,2.996,3.332h-0.028c0.522,0.149,1.045,0.284,1.568,0.405c0.522,0.122,1.045,0.257,1.568,0.406
					c0.522,0.131,1.068,0.267,1.638,0.406c0.569,0.14,1.115,0.275,1.638,0.406C58.227,56.391,59.431,58.052,59.431,60.497z"/>
				<path fill="#FFFFFF" d="M79.983,65.733h-1.568L78.359,49.27c-1.214,2.744-2.417,5.497-3.612,8.26
					c-1.195,2.763-2.38,5.498-3.556,8.204h-1.288l-7.196-16.436v16.436h-1.596V45.545h1.736l7.728,17.641
					c1.27-2.912,2.553-5.853,3.85-8.82s2.571-5.908,3.822-8.82h1.736V65.733z"/>
				<path fill="#FFFFFF" d="M83.511,65.733h-1.596V45.545h1.596V65.733z"/>
				<path fill="#FFFFFF" d="M97.987,65.733H85.331V45.545h1.596v18.593h11.06V65.733z"/>
				<path fill="#FFFFFF" d="M112.434,65.733H98.687V45.545h13.636v1.597h-12.04v7.28h11.34v1.596h-11.34v8.12h12.151V65.733z"/>
				<path fill="#FFFFFF" d="M133.741,60.497c0,0.934-0.205,1.77-0.615,2.506c-0.41,0.738-1,1.368-1.765,1.891
					c-0.653,0.411-1.386,0.728-2.198,0.952c-0.812,0.224-1.685,0.336-2.618,0.336c-1.231,0-2.314-0.149-3.248-0.448
					s-1.755-0.737-2.464-1.316c-1.493-1.287-2.24-3.312-2.24-6.075h1.597c0,4.162,2.118,6.243,6.355,6.243
					c1.53,0,2.818-0.326,3.864-0.979c0.541-0.373,0.966-0.826,1.274-1.358c0.308-0.531,0.462-1.124,0.462-1.777
					c0-1.718-0.999-2.912-2.996-3.584h0.027c-0.168-0.037-0.345-0.084-0.531-0.141c-0.188-0.056-0.364-0.103-0.532-0.14
					c-0.859-0.224-1.741-0.452-2.646-0.687c-0.905-0.232-1.806-0.452-2.701-0.657c-2.408-0.858-3.612-2.427-3.612-4.704
					c0-1.886,0.765-3.322,2.296-4.312c1.176-0.765,2.744-1.147,4.704-1.147c4.647,0,7.066,2.286,7.252,6.859h-1.596
					c-0.112-3.509-1.998-5.264-5.656-5.264c-1.568,0-2.819,0.29-3.751,0.868c-1.102,0.672-1.652,1.671-1.652,2.996
					c0,1.605,0.998,2.716,2.996,3.332h-0.028c0.522,0.149,1.046,0.284,1.568,0.405c0.522,0.122,1.044,0.257,1.568,0.406
					c0.522,0.131,1.068,0.267,1.638,0.406s1.115,0.275,1.638,0.406C132.538,56.391,133.741,58.052,133.741,60.497z"/>
				<path fill="#FFFFFF" d="M153.118,57.165c-0.205,1.438-0.537,2.707-0.994,3.809s-1.061,2.025-1.807,2.771
					c-1.623,1.624-3.668,2.437-6.131,2.437c-2.801,0-5.059-1.073-6.777-3.221c-1.549-1.885-2.324-4.273-2.324-7.168
					c0-3.005,0.795-5.497,2.381-7.476c1.754-2.146,4.105-3.22,7.057-3.22c1.996,0,3.77,0.588,5.32,1.764
					c1.754,1.344,2.688,3.174,2.799,5.488h-1.596c-0.131-1.829-0.867-3.248-2.213-4.256c-1.25-0.934-2.688-1.4-4.311-1.4
					c-2.371,0-4.303,0.905-5.797,2.716c-1.363,1.718-2.043,3.846-2.043,6.384c0,2.427,0.662,4.472,1.986,6.133
					c1.383,1.773,3.221,2.659,5.518,2.659c2.033,0,3.705-0.652,5.012-1.96c0.598-0.597,1.092-1.353,1.484-2.268
					c0.391-0.914,0.662-1.979,0.811-3.192H153.118z"/>
				<path fill="#FFFFFF" d="M156.03,65.733h-1.598V45.545h1.598V65.733z"/>
				<path fill="#FFFFFF" d="M171.597,65.733h-13.748V45.545h13.637v1.597h-12.039v7.28h11.34v1.596h-11.34v8.12h12.15V65.733z"/>
				<path fill="#FFFFFF" d="M187.782,65.733h-1.598l-12.207-17.332v17.332h-1.596V45.545h1.596l12.207,17.332V45.545h1.598V65.733z"
					/>
				<path fill="#FFFFFF" d="M207.521,57.165c-0.205,1.438-0.537,2.707-0.994,3.809s-1.059,2.025-1.805,2.771
					c-1.625,1.624-3.668,2.437-6.133,2.437c-2.799,0-5.059-1.073-6.775-3.221c-1.551-1.885-2.324-4.273-2.324-7.168
					c0-3.005,0.793-5.497,2.381-7.476c1.754-2.146,4.105-3.22,7.055-3.22c1.998,0,3.771,0.588,5.32,1.764
					c1.754,1.344,2.688,3.174,2.801,5.488h-1.598c-0.129-1.829-0.867-3.248-2.211-4.256c-1.25-0.934-2.688-1.4-4.312-1.4
					c-2.371,0-4.303,0.905-5.795,2.716c-1.363,1.718-2.045,3.846-2.045,6.384c0,2.427,0.662,4.472,1.988,6.133
					c1.381,1.773,3.221,2.659,5.516,2.659c2.035,0,3.705-0.652,5.012-1.96c0.598-0.597,1.092-1.353,1.484-2.268
					c0.393-0.914,0.662-1.979,0.812-3.192H207.521z"/>
				<path fill="#FFFFFF" d="M222.753,65.733h-13.748V45.545h13.637v1.597h-12.041v7.28h11.34v1.596h-11.34v8.12h12.152V65.733z"/>
				<path fill="#FFFFFF" d="M238.796,60.497c0,0.934-0.205,1.77-0.615,2.506c-0.41,0.738-1,1.368-1.764,1.891
					c-0.654,0.411-1.387,0.728-2.199,0.952c-0.811,0.224-1.684,0.336-2.617,0.336c-1.232,0-2.314-0.149-3.248-0.448
					s-1.756-0.737-2.465-1.316c-1.492-1.287-2.24-3.312-2.24-6.075h1.598c0,4.162,2.117,6.243,6.355,6.243
					c1.529,0,2.818-0.326,3.863-0.979c0.541-0.373,0.967-0.826,1.275-1.358c0.307-0.531,0.461-1.124,0.461-1.777
					c0-1.718-0.998-2.912-2.996-3.584h0.027c-0.168-0.037-0.344-0.084-0.531-0.141c-0.188-0.056-0.363-0.103-0.531-0.14
					c-0.859-0.224-1.742-0.452-2.646-0.687c-0.906-0.232-1.807-0.452-2.701-0.657c-2.408-0.858-3.613-2.427-3.613-4.704
					c0-1.886,0.766-3.322,2.297-4.312c1.176-0.765,2.744-1.147,4.703-1.147c4.648,0,7.066,2.286,7.252,6.859h-1.596
					c-0.111-3.509-1.998-5.264-5.656-5.264c-1.568,0-2.818,0.29-3.752,0.868c-1.102,0.672-1.652,1.671-1.652,2.996
					c0,1.605,0.998,2.716,2.996,3.332h-0.027c0.521,0.149,1.045,0.284,1.568,0.405c0.521,0.122,1.045,0.257,1.568,0.406
					c0.521,0.131,1.068,0.267,1.637,0.406c0.57,0.14,1.115,0.275,1.639,0.406C237.593,56.391,238.796,58.052,238.796,60.497z"/>
			</g>
		</g>
	</g>
	<g id="Layer_2" display="none">
		<rect display="inline" width="250" height="105"/>
	</g>
</g>
</svg>
