<?xml version="1.0" encoding="utf-8"?>
<!-- Generator: Adobe Illustrator 16.0.0, SVG Export Plug-In . SVG Version: 6.00 Build 0)  -->
<!DOCTYPE svg PUBLIC "-//W3C//DTD SVG 1.1//EN" "http://www.w3.org/Graphics/SVG/1.1/DTD/svg11.dtd">
<svg version="1.1" xmlns="http://www.w3.org/2000/svg" xmlns:xlink="http://www.w3.org/1999/xlink" x="0px" y="0px" width="250px"
	 height="105px" viewBox="0 0 250 105" enable-background="new 0 0 250 105" xml:space="preserve">
<g id="Layer_2" display="none">
	<rect display="inline" width="250" height="105"/>
</g>
<g id="Layer_1">
	<g>
		<path fill="#FFFFFF" d="M18.398,32.265c-3.045-5.323-3.57-10.237-2.765-14.546C17.282,8.359,25.25,1.82,27.559,0.1
			c-2.614,1.135-13.149,6.429-15.45,18.874c-0.258,1.458-0.402,3.014-0.408,4.672c-0.024,7.205,3.986,13.119,8.244,21.221
			c2.021,3.846,3.136,9.282,2.099,14.856c-0.107,0.604-0.239,1.208-0.396,1.812c-0.957,3.656-3.513,6.797-5.049,8.432
			c2.297-2.065,7.262-7.203,8.636-14.08C26.485,49.161,23.459,41.116,18.398,32.265z"/>
		<path fill="#FFFFFF" d="M9.395,67.199C6.35,61.875,5.824,56.96,6.63,52.651c1.648-9.357,9.617-15.896,11.926-17.617
			c-2.615,1.135-13.15,6.429-15.451,18.873c-0.257,1.459-0.402,3.015-0.407,4.672C2.673,65.783,6.684,71.698,10.94,79.8
			c2.021,3.847,3.137,9.281,2.099,14.856c-0.107,0.604-0.238,1.208-0.396,1.812c-0.957,3.658-3.511,6.797-5.048,8.433
			c2.297-2.066,7.261-7.204,8.635-14.081C17.481,84.095,14.455,76.05,9.395,67.199z"/>
		<text transform="matrix(1 0 0 1 36.8843 62.2656)"><tspan x="0" y="0" fill="#FFFFFF" font-family="'Aliquam'" font-size="27.8726" letter-spacing="1">SMILE SCIENC</tspan><tspan x="177.017" y="0" fill="#FFFFFF" font-family="'Aliquam'" font-size="27.8726" letter-spacing="5">ES</tspan></text>
	</g>
</g>
</svg>
