<?xml version="1.0" encoding="utf-8"?>
<!-- Generator: Adobe Illustrator 16.0.0, SVG Export Plug-In . SVG Version: 6.00 Build 0)  -->
<!DOCTYPE svg PUBLIC "-//W3C//DTD SVG 1.1//EN" "http://www.w3.org/Graphics/SVG/1.1/DTD/svg11.dtd">
<svg version="1.1" xmlns="http://www.w3.org/2000/svg" xmlns:xlink="http://www.w3.org/1999/xlink" x="0px" y="0px" width="29px"
	 height="39px" viewBox="0 0 29 39" enable-background="new 0 0 29 39" xml:space="preserve">
<g id="Layer_2" display="none">
	
		<rect x="-1.514" y="-0.928" display="inline" fill-rule="evenodd" clip-rule="evenodd" fill="#701414" width="32.733" height="45.069"/>
</g>
<g id="Layer_1">
	<g>
		<g>
			<path fill-rule="evenodd" clip-rule="evenodd" fill="#FFFFFF" d="M28.318,36.238l-9.117-15.793
				c2.511-2.091,4.109-5.239,4.109-8.761c0-6.296-5.104-11.4-11.4-11.4c-6.296,0-11.4,5.104-11.4,11.4c0,6.296,5.104,11.4,11.4,11.4
				c1.482,0,2.894-0.292,4.192-0.806l9.099,15.76c0.414,0.718,1.447,0.896,2.309,0.399S28.732,36.956,28.318,36.238z M11.685,19.471
				c-4.142,0-7.5-3.358-7.5-7.5s3.358-7.5,7.5-7.5c4.143,0,7.5,3.358,7.5,7.5S15.828,19.471,11.685,19.471z"/>
		</g>
	</g>
</g>
</svg>
